<svg width="102" height="101" viewBox="0 0 102 101" fill="none" xmlns="http://www.w3.org/2000/svg">
<path d="M64.2839 5.48754C62.5781 3.75027 60.5407 2.36984 58.2912 1.42736C56.0418 0.484891 53.6257 -0.000610352 51.1851 -0.000610352C48.7444 -0.000610352 46.3284 0.484891 44.0789 1.42736C41.8295 2.36984 39.792 3.75027 38.0862 5.48754L34.1445 9.51128L28.5045 9.4419C26.0631 9.41314 23.6406 9.8705 21.3794 10.7871C19.1182 11.7036 17.064 13.0609 15.3376 14.7791C13.6112 16.4973 12.2474 18.5416 11.3264 20.792C10.4054 23.0424 9.94585 25.4533 9.97474 27.883L10.0381 33.496L6.0077 37.4189C4.26208 39.1165 2.87501 41.1442 1.928 43.3829C0.981 45.6216 0.493164 48.026 0.493164 50.455C0.493164 52.884 0.981 55.2885 1.928 57.5272C2.87501 59.7659 4.26208 61.7936 6.0077 63.4912L10.0445 67.414L9.97474 73.0271C9.94585 75.4568 10.4054 77.8677 11.3264 80.118C12.2474 82.3684 13.6112 84.4128 15.3376 86.131C17.064 87.8491 19.1182 89.2064 21.3794 90.123C23.6406 91.0395 26.0631 91.4969 28.5045 91.4681L34.1445 91.4051L38.0862 95.4162C39.792 97.1535 41.8295 98.5339 44.0789 99.4764C46.3284 100.419 48.7444 100.904 51.1851 100.904C53.6257 100.904 56.0418 100.419 58.2912 99.4764C60.5407 98.5339 62.5781 97.1535 64.2839 95.4162L68.2256 91.3988L73.8656 91.4681C76.307 91.4969 78.7295 91.0395 80.9907 90.123C83.2519 89.2064 85.3061 87.8491 87.0325 86.131C88.759 84.4128 90.1228 82.3684 91.0438 80.118C91.9647 77.8677 92.4243 75.4568 92.3954 73.0271L92.332 67.414L96.3624 63.4912C98.1081 61.7936 99.4951 59.7659 100.442 57.5272C101.389 55.2885 101.877 52.884 101.877 50.455C101.877 48.026 101.389 45.6216 100.442 43.3829C99.4951 41.1442 98.1081 39.1165 96.3624 37.4189L92.3257 33.496L92.3954 27.883C92.4243 25.4533 91.9647 23.0424 91.0438 20.792C90.1228 18.5416 88.759 16.4973 87.0325 14.7791C85.3061 13.0609 83.2519 11.7036 80.9907 10.7871C78.7295 9.8705 76.307 9.41314 73.8656 9.4419L68.2256 9.50497L64.2839 5.49384V5.48754ZM66.1027 43.2274L47.0913 62.1478C46.797 62.4415 46.4473 62.6745 46.0624 62.8335C45.6774 62.9924 45.2647 63.0743 44.8479 63.0743C44.4312 63.0743 44.0185 62.9924 43.6335 62.8335C43.2486 62.6745 42.8989 62.4415 42.6046 62.1478L33.0989 52.6876C32.8043 52.3944 32.5706 52.0464 32.4112 51.6633C32.2517 51.2802 32.1697 50.8697 32.1697 50.455C32.1697 50.0404 32.2517 49.6298 32.4112 49.2467C32.5706 48.8637 32.8043 48.5156 33.0989 48.2224C33.3935 47.9292 33.7433 47.6967 34.1282 47.538C34.5131 47.3793 34.9256 47.2976 35.3423 47.2976C35.7589 47.2976 36.1714 47.3793 36.5563 47.538C36.9413 47.6967 37.291 47.9292 37.5856 48.2224L44.8479 55.4563L61.616 38.7622C62.2109 38.1701 63.0179 37.8374 63.8593 37.8374C64.7007 37.8374 65.5077 38.1701 66.1027 38.7622C66.6976 39.3543 67.0319 40.1574 67.0319 40.9948C67.0319 41.8322 66.6976 42.6353 66.1027 43.2274Z" fill="#55C3EF"/>
</svg>
