<svg width="113" height="100" viewBox="0 0 113 100" fill="none" xmlns="http://www.w3.org/2000/svg">
<path d="M53.4059 27.986L63.9814 30.7595C64.3405 30.8431 64.6619 31.0424 64.8955 31.3265C65.1292 31.6106 65.262 31.9635 65.2733 32.3304C65.2733 33.2226 64.4763 33.9596 63.4961 33.9596H56.5588C55.8113 33.9575 55.071 33.8126 54.3783 33.5329C53.3572 33.1062 52.1802 33.2032 51.3968 33.9208L47.6943 37.3149C47.523 37.4641 47.3753 37.638 47.2558 37.8308C47.103 38.0803 47.0013 38.3575 46.9565 38.6464C46.9118 38.9353 46.925 39.2301 46.9952 39.5139C47.0655 39.7976 47.1916 40.0648 47.366 40.2998C47.5405 40.5349 47.76 40.7333 48.0119 40.8835C50.0624 42.1083 52.3581 42.8697 54.7368 43.1139V46.5468C54.7368 48.2535 56.2626 49.65 58.1217 49.65H61.5065C63.3675 49.65 64.8933 48.2535 64.8933 46.5468V43.1333C71.3103 42.4351 76.1645 37.1209 75.3188 30.9146C74.7049 26.4538 70.942 22.9046 66.2457 21.6633L55.6702 18.8899C55.3111 18.8063 54.9897 18.607 54.7561 18.3229C54.5224 18.0388 54.3896 17.6859 54.3783 17.3189C54.3783 16.4267 55.1753 15.6897 56.1555 15.6897H63.0928C63.843 15.6909 64.5859 15.8358 65.2811 16.1164C66.3003 16.5431 67.4792 16.4461 68.2626 15.7285L71.9651 12.3345C72.1307 12.1884 72.2732 12.0184 72.388 11.8302C72.5421 11.5807 72.6451 11.3033 72.6909 11.014C72.7367 10.7247 72.7245 10.4292 72.6549 10.1447C72.5853 9.8601 72.4598 9.59207 72.2855 9.35607C72.1113 9.12007 71.8918 8.92077 71.6397 8.7697C69.5885 7.54498 67.2921 6.78358 64.9128 6.5393V3.10255C64.9128 1.39581 63.389 -0.000610352 61.528 -0.000610352H58.1431C56.2821 -0.000610352 54.7583 1.39581 54.7583 3.10255V6.51603C48.349 7.21424 43.4851 12.5284 44.3309 18.7347C44.9428 23.1955 48.7174 26.7448 53.4059 27.986ZM110.738 63.6336C108.439 61.5583 104.853 61.6941 102.437 63.6336L84.4308 77.9663C82.2205 79.7311 79.4697 80.6894 76.6361 80.6816H53.5891C52.7621 80.6816 51.9691 80.3546 51.3844 79.7727C50.7996 79.1907 50.4712 78.4014 50.4712 77.5784C50.4712 76.7554 50.7996 75.9661 51.3844 75.3841C51.9691 74.8022 52.7621 74.4753 53.5891 74.4753H68.8453C71.9437 74.4753 74.8297 72.3612 75.3246 69.3162C75.3857 68.9666 75.4156 68.6122 75.4143 68.2573C75.4112 66.6133 74.7528 65.0377 73.5837 63.8763C72.4146 62.7149 70.8303 62.0626 69.1785 62.0626H37.9996C32.7413 62.064 27.6433 63.8642 23.5599 67.1615L14.4985 74.4753H3.70285C2.87593 74.4753 2.08289 74.8022 1.49817 75.3841C0.913452 75.9661 0.584961 76.7554 0.584961 77.5784L0.584961 96.1974C0.584961 97.0204 0.913452 97.8097 1.49817 98.3916C2.08289 98.9736 2.87593 99.3005 3.70285 99.3005H73.2259C76.0586 99.3027 78.8076 98.3451 81.0206 96.5853L110.49 73.1176C111.199 72.5533 111.776 71.8417 112.18 71.0326C112.584 70.2236 112.805 69.3364 112.829 68.4333C112.853 67.5301 112.678 66.6327 112.317 65.8037C111.957 64.9746 111.418 64.234 110.74 63.6336H110.738Z" fill="#55C3EF"/>
</svg>
