<svg width="91" height="101" viewBox="0 0 91 101" fill="none" xmlns="http://www.w3.org/2000/svg">
<path d="M39.748 99.0469C35.2734 95.9102 30.4889 93.3767 25.3946 91.4464C20.2968 89.5162 14.9721 88.1891 9.4203 87.4652C6.93442 87.1435 4.86286 86.1172 3.2056 84.3864C1.54835 82.6588 0.719727 80.669 0.719727 78.417V44.3957C0.719727 41.3394 1.79694 38.8252 3.95137 36.8531C6.1058 34.8842 8.63311 34.1411 11.5333 34.6236C17.9137 35.6692 23.9842 37.5593 29.7448 40.2939C35.5021 43.0284 40.7424 46.5673 45.4655 50.9104C50.1887 46.5673 55.4306 43.0284 61.1912 40.2939C66.9485 37.5593 73.0173 35.6692 79.3978 34.6236C82.298 34.1411 84.8253 34.8842 86.9797 36.8531C89.1341 38.8252 90.2113 41.3394 90.2113 44.3957V78.417C90.2113 80.669 89.3827 82.6588 87.7255 84.3864C86.0682 86.1172 83.9966 87.1435 81.5108 87.4652C75.959 88.1891 70.6359 89.5162 65.5415 91.4464C60.4438 93.3767 55.6576 95.9102 51.183 99.0469C49.5258 100.253 47.62 100.857 45.4655 100.857C43.3111 100.857 41.4053 100.253 39.748 99.0469ZM45.4655 38.6049C39.9966 38.6049 35.3149 36.7148 31.4203 32.9346C27.5258 29.1545 25.5785 24.6103 25.5785 19.302C25.5785 13.9937 27.5258 9.4495 31.4203 5.66936C35.3149 1.88922 39.9966 -0.000854492 45.4655 -0.000854492C50.9345 -0.000854492 55.6162 1.88922 59.5107 5.66936C63.4053 9.4495 65.3526 13.9937 65.3526 19.302C65.3526 24.6103 63.4053 29.1545 59.5107 32.9346C55.6162 36.7148 50.9345 38.6049 45.4655 38.6049Z" fill="#55C3EF"/>
</svg>
